<svg width="24" height="24" viewBox="0 0 24 24" fill="none" xmlns="http://www.w3.org/2000/svg">
<path d="M16.8733 3.29406C17.125 3.04239 17.4238 2.84275 17.7526 2.70655C18.0814 2.57035 18.4338 2.50024 18.7897 2.50024C19.1457 2.50024 19.4981 2.57035 19.8269 2.70655C20.1557 2.84275 20.4545 3.04239 20.7062 3.29406C20.9579 3.54573 21.1575 3.84451 21.2937 4.17333C21.4299 4.50215 21.5 4.85458 21.5 5.2105C21.5 5.56642 21.4299 5.91885 21.2937 6.24767C21.1575 6.57649 20.9579 6.87527 20.7062 7.12694L7.77021 20.0629L2.5 21.5002L3.93733 16.23L16.8733 3.29406Z" stroke="black" stroke-width="2" stroke-linecap="round" stroke-linejoin="round"/>
</svg>
