<svg width="230" height="65" viewBox="0 0 230 65" fill="none" xmlns="http://www.w3.org/2000/svg">
<path d="M30.6426 7.12663C31.1618 5.8842 31.7338 5.18948 32.1512 4.84072C32.547 4.51003 32.7783 4.5 32.8334 4.5C32.8884 4.5 33.1197 4.51003 33.5155 4.84071C33.9329 5.18948 34.5049 5.8842 35.0241 7.12662C37.2238 12.3908 40.1587 17.3037 44.0942 21.2391C48.0297 25.1746 52.9426 28.1096 58.2067 30.3093C59.4491 30.8285 60.1439 31.4005 60.4926 31.8179C60.8233 32.2137 60.8333 32.4449 60.8333 32.5C60.8333 32.5551 60.8233 32.7863 60.4926 33.1821C60.1439 33.5996 59.4491 34.1716 58.2067 34.6907C52.9426 36.8905 48.0297 39.8254 44.0942 43.7609C40.1588 47.6964 37.2238 52.6092 35.0241 57.8734C34.5049 59.1158 33.9329 59.8105 33.5155 60.1593C33.1197 60.49 32.8884 60.5 32.8334 60.5C32.7783 60.5 32.547 60.49 32.1512 60.1593C31.7338 59.8105 31.1618 59.1158 30.6426 57.8734C28.4429 52.6092 25.508 47.6964 21.5725 43.7609C17.637 39.8254 12.7241 36.8905 7.45997 34.6907C6.21755 34.1716 5.52282 33.5996 5.17406 33.1821C4.84338 32.7863 4.83334 32.5551 4.83334 32.5C4.83334 32.4449 4.84338 32.2137 5.17406 31.8179C5.52282 31.4005 6.21754 30.8285 7.45997 30.3093C12.7241 28.1096 17.637 25.1746 21.5725 21.2391C25.508 17.3037 28.4429 12.3908 30.6426 7.12663Z" stroke="black" stroke-width="8"/>
<path d="M98.428 18.68V28.9467H112.215V35.4587H98.428V46.312H113.975V53H90.2147V11.992H113.975V18.68H98.428ZM119.327 36.7493C119.327 33.3858 120.011 30.4524 121.38 27.9493C122.749 25.4071 124.646 23.4516 127.071 22.0827C129.496 20.6747 132.272 19.9707 135.401 19.9707C139.43 19.9707 142.754 20.9876 145.375 23.0213C148.034 25.016 149.814 27.832 150.713 31.4693H141.855C141.385 30.0613 140.584 28.9662 139.449 28.184C138.354 27.3627 136.985 26.952 135.343 26.952C132.996 26.952 131.138 27.8124 129.769 29.5333C128.4 31.2151 127.716 33.6204 127.716 36.7493C127.716 39.8391 128.4 42.2444 129.769 43.9653C131.138 45.6471 132.996 46.488 135.343 46.488C138.667 46.488 140.838 45.0018 141.855 42.0293H150.713C149.814 45.5493 148.034 48.3458 145.375 50.4187C142.715 52.4916 139.391 53.528 135.401 53.528C132.272 53.528 129.496 52.8436 127.071 51.4747C124.646 50.0667 122.749 48.1111 121.38 45.608C120.011 43.0658 119.327 40.1129 119.327 36.7493ZM175.034 20.0293C177.498 20.0293 179.689 20.5769 181.605 21.672C183.521 22.728 185.008 24.312 186.064 26.424C187.159 28.4969 187.706 31 187.706 33.9333V53H179.493V35.048C179.493 32.4667 178.848 30.4916 177.557 29.1227C176.266 27.7147 174.506 27.0107 172.277 27.0107C170.009 27.0107 168.209 27.7147 166.88 29.1227C165.589 30.4916 164.944 32.4667 164.944 35.048V53H156.73V9.58667H164.944V24.5467C166 23.1387 167.408 22.0436 169.168 21.2613C170.928 20.44 172.883 20.0293 175.034 20.0293ZM209.949 53.528C206.82 53.528 204.004 52.8436 201.501 51.4747C198.998 50.0667 197.023 48.0916 195.575 45.5493C194.167 43.0071 193.463 40.0738 193.463 36.7493C193.463 33.4249 194.187 30.4916 195.634 27.9493C197.12 25.4071 199.135 23.4516 201.677 22.0827C204.219 20.6747 207.055 19.9707 210.183 19.9707C213.312 19.9707 216.148 20.6747 218.69 22.0827C221.232 23.4516 223.227 25.4071 224.674 27.9493C226.16 30.4916 226.903 33.4249 226.903 36.7493C226.903 40.0738 226.141 43.0071 224.615 45.5493C223.129 48.0916 221.095 50.0667 218.514 51.4747C215.972 52.8436 213.117 53.528 209.949 53.528ZM209.949 46.3707C211.435 46.3707 212.823 46.0187 214.114 45.3147C215.444 44.5716 216.5 43.4764 217.282 42.0293C218.064 40.5822 218.455 38.8222 218.455 36.7493C218.455 33.6596 217.634 31.2933 215.991 29.6507C214.388 27.9689 212.413 27.128 210.066 27.128C207.719 27.128 205.744 27.9689 204.141 29.6507C202.576 31.2933 201.794 33.6596 201.794 36.7493C201.794 39.8391 202.557 42.2249 204.082 43.9067C205.647 45.5493 207.602 46.3707 209.949 46.3707Z" fill="black"/>
</svg>
